<?xml version="1.0" encoding="utf-8"?>
<!-- Generator: Adobe Illustrator 22.0.0, SVG Export Plug-In . SVG Version: 6.00 Build 0)  -->
<svg version="1.1" id="Capa_1" xmlns="http://www.w3.org/2000/svg" xmlns:xlink="http://www.w3.org/1999/xlink" x="0px" y="0px"
	 viewBox="0 0 385 385" style="enable-background:new 0 0 385 385;" xml:space="preserve">
<style type="text/css">
	.st0{fill:#D40005;}
</style>
<g>
	<g id="Menu_1_">
		<path class="st0" d="M12,120.3h360.9c6.6,0,12-5.4,12-12c0-6.6-5.4-12-12-12H12c-6.6,0-12,5.4-12,12S5.4,120.3,12,120.3z"/>
		<path class="st0" d="M372.9,180.5H12c-6.6,0-12,5.4-12,12s5.4,12,12,12h360.9c6.6,0,12-5.4,12-12S379.6,180.5,372.9,180.5z"/>
		<path class="st0" d="M372.9,264.7H132.3c-6.6,0-12,5.4-12,12c0,6.6,5.4,12,12,12h240.6c6.6,0,12-5.4,12-12
			C385,270.1,379.6,264.7,372.9,264.7z"/>
	</g>
</g>
</svg>
